<svg width="1600" height="980" viewBox="0 0 1600 980" fill="none" xmlns="http://www.w3.org/2000/svg">
  <defs>
    <linearGradient id="bg" x1="134" y1="106" x2="1480" y2="910" gradientUnits="userSpaceOnUse">
      <stop stop-color="#090C10" />
      <stop offset="0.5" stop-color="#121921" />
      <stop offset="1" stop-color="#171E25" />
    </linearGradient>
    <radialGradient id="glow" cx="0" cy="0" r="1" gradientUnits="userSpaceOnUse" gradientTransform="translate(1071 262) rotate(127.761) scale(351 351)">
      <stop stop-color="#8EB7C9" stop-opacity="0.34" />
      <stop offset="1" stop-color="#8EB7C9" stop-opacity="0" />
    </radialGradient>
  </defs>
  <rect width="1600" height="980" fill="url(#bg)" />
  <circle cx="1071" cy="262" r="351" fill="url(#glow)" />
  <rect x="104" y="88" width="1392" height="804" rx="34" fill="white" fill-opacity="0.02" stroke="white" stroke-opacity="0.08" />
  <g opacity="0.1">
    <path d="M146 132H1454" stroke="white" />
    <path d="M146 844H1454" stroke="white" />
    <path d="M146 132V844" stroke="white" />
    <path d="M1454 132V844" stroke="white" />
  </g>
  <rect x="216" y="210" width="560" height="500" rx="34" fill="white" fill-opacity="0.03" stroke="#8EB7C9" stroke-opacity="0.42" stroke-width="2" />
  <rect x="278" y="272" width="438" height="376" rx="20" fill="#0C131A" stroke="white" stroke-opacity="0.12" />
  <path d="M295 580L421 470L530 538L714 346" stroke="#EAF1F6" stroke-opacity="0.62" stroke-width="3" stroke-linecap="round" />
  <path d="M295 616H700" stroke="#EAF1F6" stroke-opacity="0.18" stroke-width="2" />
  <path d="M889 249H1330V350H889V249Z" fill="white" fill-opacity="0.03" stroke="#B69768" stroke-opacity="0.4" stroke-width="2" />
  <path d="M889 387H1330V488H889V387Z" fill="white" fill-opacity="0.03" stroke="#8EB7C9" stroke-opacity="0.42" stroke-width="2" />
  <path d="M889 525H1330V626H889V525Z" fill="white" fill-opacity="0.03" stroke="#EAF1F6" stroke-opacity="0.16" stroke-width="2" />
  <path d="M889 663H1330V764H889V663Z" fill="white" fill-opacity="0.03" stroke="#8EB7C9" stroke-opacity="0.26" stroke-width="2" />
  <path d="M934 292H1259" stroke="#EAF1F6" stroke-opacity="0.82" stroke-width="2.2" />
  <path d="M934 429H1201" stroke="#EAF1F6" stroke-opacity="0.82" stroke-width="2.2" />
  <path d="M934 569H1283" stroke="#EAF1F6" stroke-opacity="0.82" stroke-width="2.2" />
  <path d="M934 708H1180" stroke="#EAF1F6" stroke-opacity="0.82" stroke-width="2.2" />
  <text x="139" y="159" fill="#EAF1F6" fill-opacity="0.82" font-family="Segoe UI, Microsoft YaHei UI, sans-serif" font-size="24" letter-spacing="6">STUDIO WORKS / INTERIOR + LANDSCAPE + VISUALIZATION</text>
</svg>
